<?xml version="1.0" standalone="no"?>
<!DOCTYPE svg PUBLIC "-//W3C//DTD SVG 20010904//EN"
 "http://www.w3.org/TR/2001/REC-SVG-20010904/DTD/svg10.dtd">
<svg version="1.0" xmlns="http://www.w3.org/2000/svg"
 width="360.000000pt" height="360.000000pt" viewBox="0 0 360.000000 360.000000"
 preserveAspectRatio="xMidYMid meet">
<metadata>
Created by potrace 1.11, written by Peter Selinger 2001-2013
</metadata>
<g transform="translate(0.000000,360.000000) scale(0.100000,-0.100000)"
fill="#000000" stroke="none">
<path d="M857 2558 c-75 -16 -159 -74 -204 -143 -43 -64 -50 -111 -51 -315 0
-107 -1 -202 -1 -210 -1 -11 -12 -15 -42 -14 -37 0 -44 5 -74 46 -42 57 -89
87 -157 97 -176 28 -311 -154 -237 -319 51 -115 190 -165 303 -110 42 20 55
32 104 99 17 22 25 23 119 25 94 1 103 3 122 25 12 13 22 27 22 30 1 3 2 121
3 261 2 292 5 304 86 349 l43 24 896 0 c493 0 910 -3 926 -7 41 -10 83 -43
102 -79 14 -27 17 -70 18 -282 1 -137 5 -260 9 -273 12 -37 52 -50 151 -48
l90 1 26 -41 c46 -72 111 -106 198 -105 81 1 136 32 191 111 34 48 38 155 8
214 -58 115 -190 160 -304 105 -42 -20 -71 -47 -105 -98 -11 -18 -25 -24 -57
-26 -39 -2 -42 0 -42 24 0 14 -2 116 -3 226 l-2 200 -35 63 c-44 83 -118 144
-205 167 -38 11 -1849 13 -1898 3z m-519 -717 c46 -39 16 -111 -45 -111 -35 0
-66 39 -59 75 11 54 63 72 104 36z m3012 -1 c52 -52 -14 -135 -79 -99 -36 20
-41 81 -9 103 31 22 64 20 88 -4z"/>
<path d="M1217 2236 c-35 -12 -86 -39 -111 -60 -51 -41 -96 -119 -96 -164 l0
-28 76 1 c74 1 76 2 96 33 65 103 293 102 341 -1 l16 -33 78 1 c78 0 78 0 79
27 3 74 -71 163 -176 212 -87 40 -204 45 -303 12z"/>
<path d="M2187 2250 c-137 -35 -249 -154 -238 -256 1 -7 29 -10 78 -9 65 1 77
4 83 21 28 74 191 116 280 73 35 -18 80 -60 80 -76 0 -16 -3 -15 87 -17 66 -2
72 0 75 18 12 72 -94 197 -193 230 -63 21 -198 29 -252 16z"/>
<path d="M648 1592 l-48 -3 3 -162 3 -162 34 -63 c39 -74 83 -115 160 -151
l55 -25 935 0 c694 0 946 3 977 12 106 31 202 136 221 242 6 30 9 111 9 180
l-2 125 -80 0 -79 0 -1 -140 c-1 -159 -10 -185 -78 -232 l-38 -26 -912 0
c-910 0 -912 0 -953 21 -24 12 -52 38 -65 59 -21 33 -23 49 -24 177 l-1 141
-34 5 c-19 3 -56 4 -82 2z"/>
<path d="M1060 1590 c-48 -4 -55 -7 -52 -25 22 -124 213 -220 517 -260 163
-21 468 -21 595 0 264 43 387 89 466 173 37 39 57 90 43 107 -5 5 -44 8 -86 7
-58 -2 -82 -7 -98 -21 -35 -31 -176 -78 -290 -96 -107 -16 -143 -19 -320 -19
-205 -1 -280 5 -401 30 -121 24 -206 57 -247 92 -19 17 -45 19 -127 12z"/>
</g>
</svg>
